<svg xmlns="http://www.w3.org/2000/svg" viewBox="0 0 180 150" role="img" aria-label="升压站">
  <defs>
    <linearGradient id="stationTop" x1="48" y1="82" x2="132" y2="122" gradientUnits="userSpaceOnUse">
      <stop offset="0" stop-color="#777d8d"/>
      <stop offset="1" stop-color="#505666"/>
    </linearGradient>
    <linearGradient id="stationSide" x1="90" y1="113" x2="90" y2="139" gradientUnits="userSpaceOnUse">
      <stop offset="0" stop-color="#3f4553"/>
      <stop offset="1" stop-color="#2c323e"/>
    </linearGradient>
    <linearGradient id="cabinet" x1="57" y1="64" x2="120" y2="101" gradientUnits="userSpaceOnUse">
      <stop offset="0" stop-color="#c4c8d2"/>
      <stop offset="1" stop-color="#8b91a0"/>
    </linearGradient>
    <filter id="stationShadow" x="-20%" y="-20%" width="140%" height="150%">
      <feDropShadow dx="0" dy="12" stdDeviation="8" flood-color="#05070d" flood-opacity=".35"/>
    </filter>
  </defs>
  <g filter="url(#stationShadow)">
    <path d="M90 76 143 101 90 126 37 101Z" fill="url(#stationTop)"/>
    <path d="M37 101v12l53 26v-13Z" fill="url(#stationSide)"/>
    <path d="M143 101v12l-53 26v-13Z" fill="#343a47"/>
    <path d="m37 113 53 26 53-26" fill="none" stroke="#c6ced9" stroke-width="1" opacity=".35"/>
  </g>
  <g stroke-linejoin="round">
    <path d="M56 76 88 61l38 18-32 16Z" fill="#d1d4dc" stroke="#aab0bd" stroke-width="1.4"/>
    <path d="M56 76v23l38 18V95Z" fill="url(#cabinet)" stroke="#8f96a5" stroke-width="1.2"/>
    <path d="M126 79v22l-32 16V95Z" fill="#7e8493" stroke="#8f96a5" stroke-width="1.2"/>
    <path d="M65 82v19M74 78v28M83 74v36M101 89v22M110 85v20M118 81v20" stroke="#666d7c" stroke-width="1.1"/>
    <path d="M62 91h30M62 98h30M62 105h30" stroke="#dde1e8" stroke-width="1" opacity=".45"/>
    <path d="M71 66v-16M88 60V42M105 69V49M116 74V58" stroke="#bfc4cf" stroke-width="2" stroke-linecap="round"/>
    <path d="M67 50h8M84 42h8M101 49h8M112 58h8" stroke="#d4d8e0" stroke-width="1.7" stroke-linecap="round"/>
    <path d="M70 58h39" stroke="#969dab" stroke-width="1.4" stroke-linecap="round"/>
    <g fill="#c5cad4" stroke="#8f96a4" stroke-width="1">
      <rect x="58" y="68" width="7" height="10" rx="1"/>
      <rect x="67" y="64" width="7" height="11" rx="1"/>
      <rect x="112" y="72" width="7" height="10" rx="1"/>
    </g>
  </g>
</svg>
