<svg xmlns="http://www.w3.org/2000/svg" viewBox="0 0 180 150" role="img" aria-label="风机">
  <defs>
    <linearGradient id="windTop" x1="45" y1="87" x2="135" y2="128" gradientUnits="userSpaceOnUse">
      <stop offset="0" stop-color="#777d8d"/>
      <stop offset="1" stop-color="#4f5564"/>
    </linearGradient>
    <linearGradient id="windSide" x1="90" y1="118" x2="90" y2="140" gradientUnits="userSpaceOnUse">
      <stop offset="0" stop-color="#3f4553"/>
      <stop offset="1" stop-color="#2c323e"/>
    </linearGradient>
    <filter id="windShadow" x="-20%" y="-20%" width="140%" height="150%">
      <feDropShadow dx="0" dy="12" stdDeviation="8" flood-color="#05070d" flood-opacity=".35"/>
    </filter>
  </defs>
  <g filter="url(#windShadow)">
    <path d="M90 84 145 109 90 134 35 109Z" fill="url(#windTop)"/>
    <path d="M35 109v12l55 25v-12Z" fill="url(#windSide)"/>
    <path d="M145 109v12l-55 25v-12Z" fill="#343a47"/>
    <path d="m35 121 55 25 55-25" fill="none" stroke="#c6ced9" stroke-width="1" opacity=".35"/>
  </g>
  <g stroke-linecap="round" stroke-linejoin="round">
    <path d="M90 106V46" stroke="#c9ced8" stroke-width="5"/>
    <path d="M92 106V46" stroke="#9299a8" stroke-width="1.4"/>
    <circle cx="90" cy="46" r="5.8" fill="#d5d9e1" stroke="#8f96a5" stroke-width="1.4"/>
    <g transform="rotate(-90 90 46)">
      <path d="M90 46 C106 40 123 42 138 51 C121 58 106 58 90 46Z" fill="#cfd3dc" stroke="#939aa8" stroke-width="1.3"/>
    </g>
    <g transform="rotate(30 90 46)">
      <path d="M90 46 C106 40 123 42 138 51 C121 58 106 58 90 46Z" fill="#c3c8d2" stroke="#8d94a3" stroke-width="1.3"/>
    </g>
    <g transform="rotate(150 90 46)">
      <path d="M90 46 C106 40 123 42 138 51 C121 58 106 58 90 46Z" fill="#b8beca" stroke="#858c9c" stroke-width="1.3"/>
    </g>
    <g stroke="#edf0f5" stroke-width="1" opacity=".62">
      <path d="M90 46 90 10"/>
      <path d="M90 46 121 64"/>
      <path d="M90 46 59 64"/>
    </g>
    <ellipse cx="90" cy="107" rx="8" ry="4" fill="#d0d4dd" opacity=".75"/>
  </g>
</svg>
